<svg width="39" height="62" viewBox="0 0 39 62" fill="none" xmlns="http://www.w3.org/2000/svg">
<path d="M0.47382 2.17544C0.895171 1.39591 1.22492 1.05146 1.99435 0.580117C2.76377 0.145029 3.22176 0 3.88127 0C4.43086 0 5.01709 0.145029 5.4934 0.416959C5.89643 0.634503 13.3892 6.99766 22.1093 14.5573C34.2369 25.0538 38.1023 28.4982 38.4871 29.1509C38.8718 29.8035 39 30.2386 39 31C39 31.6889 38.8901 32.2327 38.597 32.7766C38.2672 33.3749 34.4567 36.7649 22.1459 47.4064C12.8396 55.4737 5.78651 61.438 5.34684 61.6374C4.90717 61.8368 4.21102 62 3.78967 62C3.22176 62 2.70881 61.8368 1.99435 61.4199C1.22492 60.9485 0.876852 60.6041 0.47382 59.8246C0.0341489 58.9906 -0.0391296 58.6643 0.0158293 57.8304C0.0707882 57.2684 0.272304 56.5433 0.47382 56.1988C0.693656 55.8363 6.99561 50.2526 14.983 43.3275C22.7505 36.6018 29.0891 31.0363 29.0708 30.9637C29.0341 30.8912 22.6772 25.3439 14.9097 18.6181C4.35758 9.48129 0.711975 6.21813 0.4555 5.6924C0.253984 5.3117 0.0707882 4.56842 0.0158293 4.07895C-0.0391296 3.33567 0.0524686 2.99123 0.47382 2.17544Z" fill="black"/>
</svg>
